HIERARCHY
ROOT Hips
{
 OFFSET 0.000000 0.000000 0.000000
 CHANNELS 6 Xposition Yposition Zposition Yrotation Xrotation Zrotation
 JOINT Chest
 {
  OFFSET 0.000000 9.585900 0.002600
  CHANNELS 3 Yrotation Xrotation Zrotation
  JOINT Chest2
  {
   OFFSET 0.000000 9.601200 -0.005300
   CHANNELS 3 Yrotation Xrotation Zrotation
   JOINT Chest3
   {
    OFFSET 0.000000 9.561800 0.000000
    CHANNELS 3 Yrotation Xrotation Zrotation
    JOINT Chest4
    {
     OFFSET 0.000000 9.552100 0.000000
     CHANNELS 3 Yrotation Xrotation Zrotation
     JOINT Neck
     {
      OFFSET 0.000000 14.453000 0.000000
      CHANNELS 3 Yrotation Xrotation Zrotation
      JOINT Head
      {
       OFFSET 0.000000 8.936500 -0.011300
       CHANNELS 3 Yrotation Xrotation Zrotation
       End Site
       {
        OFFSET 0.000000 17.073600 -0.006000
       }
      }
     }
     JOINT RightCollar
     {
      OFFSET -2.921100 9.558500 0.000000
      CHANNELS 3 Yrotation Xrotation Zrotation
      JOINT RightShoulder
      {
       OFFSET -13.519700 0.000000 0.000000
       CHANNELS 3 Yrotation Xrotation Zrotation
       JOINT RightElbow
       {
        OFFSET 0.000000 -29.696600 0.000000
        CHANNELS 3 Yrotation Xrotation Zrotation
        JOINT RightWrist
        {
         OFFSET 0.000000 -24.004700 0.000000
         CHANNELS 3 Yrotation Xrotation Zrotation
         End Site
         {
          OFFSET 0.000000 -17.728500 0.000000
         }
        }
       }
      }
     }
     JOINT LeftCollar
     {
      OFFSET 2.921100 9.558500 0.000000
      CHANNELS 3 Yrotation Xrotation Zrotation
      JOINT LeftShoulder
      {
       OFFSET 13.519700 0.000000 0.000000
       CHANNELS 3 Yrotation Xrotation Zrotation
       JOINT LeftElbow
       {
        OFFSET 0.000000 -29.696600 0.000000
        CHANNELS 3 Yrotation Xrotation Zrotation
        JOINT LeftWrist
        {
         OFFSET 0.000000 -24.004700 0.000000
         CHANNELS 3 Yrotation Xrotation Zrotation
         End Site
         {
          OFFSET 0.000000 -17.728500 0.000000
         }
        }
       }
      }
     }
    }
   }
  }
 }
 JOINT RightHip
 {
  OFFSET -7.771700 -0.012900 -0.001300
  CHANNELS 3 Yrotation Xrotation Zrotation
  JOINT RightKnee
  {
   OFFSET 0.000000 -40.869800 0.001200
   CHANNELS 3 Yrotation Xrotation Zrotation
   JOINT RightAnkle
   {
    OFFSET 0.000000 -39.717900 0.002100
    CHANNELS 3 Yrotation Xrotation Zrotation
    JOINT RightToe
    {
     OFFSET 0.000000 -4.965400 11.033500
     CHANNELS 3 Yrotation Xrotation Zrotation
     End Site
     {
      OFFSET 0.000000 -1.423100 5.872300
     }
    }
   }
  }
 }
 JOINT LeftHip
 {
  OFFSET 7.771700 -0.012900 -0.001300
  CHANNELS 3 Yrotation Xrotation Zrotation
  JOINT LeftKnee
  {
   OFFSET 0.000000 -40.869800 0.001200
   CHANNELS 3 Yrotation Xrotation Zrotation
   JOINT LeftAnkle
   {
    OFFSET 0.000000 -39.717900 0.002100
    CHANNELS 3 Yrotation Xrotation Zrotation
    JOINT LeftToe
    {
     OFFSET 0.000000 -4.965400 11.033500
     CHANNELS 3 Yrotation Xrotation Zrotation
     End Site
     {
      OFFSET 0.000000 -1.423100 5.872300
     }
    }
   }
  }
 }
}
MOTION
Frames: 9
Frame Time: 0.008333
-124.918237 62.010280 19.602401 176.311580 -50.401153 -0.274268 4.201945 27.253053 1.320850 0.589472 4.713673 0.233907 0.932968 7.481991 0.398296 3.049305 22.046974 1.586149 1.899919 14.006205 0.127187 3.500371 -9.705343 -0.468051 7.436202 4.241184 4.446665 -6.250430 -5.884361 -13.448570 -111.106640 -60.039927 151.763652 11.757500 10.934559 -0.711654 -10.048010 2.970809 -1.140330 -4.041842 -10.066810 18.055984 105.274366 -71.464131 -136.551038 6.769595 0.192312 -6.758606 3.720833 -16.630585 -6.365974 -2.888018 59.053010 -7.248262 -0.145719 -8.360277 9.218830 0.342514 -0.799309 0.161179 -3.988229 -13.314839 1.647694 32.444612 74.268598 34.936157 0.656268 -10.914045 -6.030805 0.274718 0.933293 0.126963
-124.920622 62.009001 19.603814 176.312530 -50.405381 -0.278962 4.221397 27.225224 1.326293 0.591768 4.705039 0.234319 0.941988 7.456555 0.396185 3.067737 22.026070 1.592597 2.037839 14.051409 0.139003 3.767550 -9.648295 -0.513431 7.406121 4.331104 4.493422 -6.230655 -5.900089 -13.486955 -111.180943 -59.972555 151.833186 11.750597 10.938231 -0.716134 -10.041033 3.064679 -1.153908 -4.134006 -10.158135 18.090640 105.170359 -71.439760 -136.466355 6.762195 0.181226 -6.766051 3.721659 -16.627071 -6.362093 -2.875038 59.053944 -7.236219 -0.152713 -8.375476 9.217388 0.340186 -0.791510 0.162373 -3.989410 -13.311686 1.650469 32.450017 74.268412 34.941561 0.651621 -10.915886 -6.032484 0.276662 0.936592 0.128987
-124.922527 62.007817 19.605324 176.313028 -50.410832 -0.284332 4.241241 27.196491 1.334183 0.594016 4.696310 0.234788 0.951349 7.430640 0.395084 3.085999 22.005064 1.599442 2.173365 14.096818 0.152585 4.030982 -9.591512 -0.553228 7.375028 4.425457 4.538333 -6.207528 -5.914245 -13.528618 -111.225144 -59.916884 151.859668 11.751660 10.917812 -0.710116 -10.057816 3.158753 -1.158814 -4.177317 -10.205091 18.108697 105.119951 -71.426469 -136.427371 6.758512 0.174532 -6.770254 3.725107 -16.622950 -6.358106 -2.862755 59.056068 -7.221866 -0.157946 -8.389110 9.214138 0.334647 -0.780874 0.165135 -3.990429 -13.307935 1.652592 32.451068 74.271517 34.946210 0.649305 -10.917380 -6.036585 0.280926 0.938073 0.131227
-124.923085 62.006496 19.607193 176.316999 -50.415467 -0.298578 4.259149 27.174450 1.350203 0.602044 4.679046 0.233458 0.941662 7.445330 0.399369 3.093067 21.996614 1.602030 2.327070 14.090186 0.152951 4.288269 -9.535315 -0.579883 7.371449 4.487062 4.573064 -6.200818 -5.944722 -13.563426 -111.239623 -59.892489 151.862282 11.753378 10.868034 -0.696096 -10.053330 3.199822 -1.171171 -4.218022 -10.251245 18.126952 105.188511 -71.358175 -136.541264 6.749276 0.156668 -6.782244 3.722233 -16.622347 -6.344141 -2.861647 59.059786 -7.220668 -0.159761 -8.394313 9.210018 0.338679 -0.788021 0.167658 -3.992719 -13.307869 1.659283 32.451834 74.276839 34.959780 0.643429 -10.909106 -6.046160 0.292595 0.929052 0.134560
-124.925898 62.004826 19.609291 176.326152 -50.417682 -0.301739 4.256912 27.168370 1.347657 0.608974 4.666187 0.231910 0.942549 7.438593 0.400463 3.099731 21.988065 1.604376 2.480143 14.085774 0.159693 4.538995 -9.481177 -0.590495 7.370888 4.553591 4.604513 -6.197511 -5.978521 -13.595231 -111.283312 -59.844288 151.912762 11.743682 10.845648 -0.703358 -9.998731 3.248763 -1.242650 -4.354554 -10.396957 18.202914 104.949704 -71.319628 -136.326671 6.732044 0.185339 -6.764463 3.726847 -16.623592 -6.352843 -2.857830 59.065574 -7.208142 -0.160369 -8.399555 9.206053 0.337652 -0.796332 0.167541 -3.996205 -13.309014 1.653184 32.452514 74.274186 34.964790 0.631319 -10.902363 -6.047951 0.301401 0.927631 0.136389
-124.928089 62.003646 19.611092 176.348051 -50.423315 -0.317137 4.268618 27.140160 1.352292 0.598252 4.678369 0.235215 0.958211 7.403987 0.395991 3.113482 21.970462 1.607895 2.619451 14.122584 0.193471 4.787976 -9.431507 -0.587208 7.378816 4.699631 4.666181 -6.203101 -6.057563 -13.644020 -111.329796 -59.781237 151.951807 11.733166 10.822865 -0.714453 -9.980753 3.336953 -1.282758 -4.444150 -10.493525 18.251137 104.786248 -71.301839 -136.179624 6.739063 0.119120 -6.812301 3.714495 -16.617368 -6.354505 -2.857688 59.063336 -7.207728 -0.154497 -8.405019 9.205067 0.334802 -0.801794 0.166072 -4.009821 -13.304918 1.648536 32.460801 74.267079 34.976617 0.621363 -10.899604 -6.052771 0.307802 0.931619 0.139335
-124.929649 62.001603 19.613611 176.349666 -50.421749 -0.320531 4.292986 27.111113 1.359064 0.600852 4.670638 0.236139 0.962541 7.392476 0.397489 3.152034 21.919122 1.605245 2.736519 14.189582 0.248874 5.038081 -9.385340 -0.570709 7.337493 4.833095 4.727561 -6.182624 -6.098801 -13.680310 -111.382333 -59.711843 151.999300 11.721083 10.807868 -0.733270 -10.020988 3.443624 -1.280912 -4.478948 -10.560878 18.262555 104.636230 -71.312399 -136.036415 6.768209 0.012413 -6.884243 3.719309 -16.618942 -6.352149 -2.850004 59.058794 -7.200659 -0.153134 -8.407312 9.207814 0.336911 -0.812249 0.162964 -4.011593 -13.306736 1.648635 32.473569 74.259275 34.992311 0.611769 -10.899666 -6.058490 0.314424 0.938271 0.142469
-124.931188 62.000449 19.615261 176.351355 -50.426063 -0.324105 4.315673 27.094193 1.366811 0.602421 4.663829 0.235897 0.965137 7.382377 0.397328 3.173233 21.898018 1.600813 2.872255 14.224065 0.298603 5.285714 -9.340642 -0.542891 7.320442 4.931755 4.772074 -6.172213 -6.143208 -13.709598 -111.467205 -59.619676 152.085091 11.695823 10.815688 -0.755782 -10.041927 3.513696 -1.277174 -4.503726 -10.610580 18.275605 104.705670 -71.186131 -136.160414 6.748047 0.054891 -6.858636 3.721794 -16.617605 -6.348586 -2.855064 59.059753 -7.206057 -0.146860 -8.403734 9.209657 0.338043 -0.824288 0.161229 -4.013328 -13.302330 1.648499 32.480064 74.256067 35.000723 0.610387 -10.901727 -6.064241 0.316349 0.942823 0.146202
-124.932979 61.999775 19.616268 176.352951 -50.432743 -0.326783 4.336389 27.078636 1.369940 0.616513 4.646500 0.229418 0.959000 7.385978 0.404760 3.190768 21.891575 1.600843 3.010284 14.244507 0.343862 5.527203 -9.300197 -0.509851 7.300664 4.990596 4.807919 -6.150109 -6.154119 -13.750791 -111.533508 -59.531192 152.140172 11.673294 10.786429 -0.782320 -10.043630 3.572945 -1.295547 -4.543496 -10.634960 18.318199 104.776170 -71.082701 -136.254915 6.739151 0.059400 -6.856916 3.726641 -16.613223 -6.346540 -2.866733 59.061504 -7.214617 -0.142080 -8.400675 9.212020 0.338178 -0.832145 0.159327 -4.014302 -13.295488 1.646343 32.476655 74.256602 34.998961 0.617523 -10.904933 -6.065233 0.314742 0.947431 0.144691
